# xmcd CD database file
#
# Track frame offsets:
#	150
#	20455
#	37510
#	55630
#	70445
#	89520
#	100232
#	113297
#	135522
#	153792
#	174855
#	194420
#	214307
#	233557
#
# Disc length: 3160 seconds
#
# Revision: 0
# Processed by: cddbd v1.5.1PL2 Copyright (c) Steve Scherf et al.
# Submitted via: CDex 1.51
#
DISCID=a50c560e
DTITLE=Livin' The Blues - See You in Chicago
DYEAR=2004
DGENRE=Blues
TTITLE0=Playing with my Friends
TTITLE1=Mojo Working
TTITLE2=40 Days
TTITLE3=Walkin' on the Sunset
TTITLE4=Shame, Shame, Shame
TTITLE5=Born in Chicago
TTITLE6=I'm Ready
TTITLE7=Lonely Avenue
TTITLE8=Baby please don't go
TTITLE9=Rock me
TTITLE10=Upset me
TTITLE11=Blues Tonight
TTITLE12=Fever
TTITLE13=Harp Power
EXTD=YEAR: 2004
EXTT0=
EXTT1=
EXTT2=
EXTT3=
EXTT4=
EXTT5=
EXTT6=
EXTT7=
EXTT8=
EXTT9=
EXTT10=
EXTT11=
EXTT12=
EXTT13=
PLAYORDER=
